<svg width="28" height="28" viewBox="0 0 28 28" fill="none" xmlns="http://www.w3.org/2000/svg">
<path d="M10.3405 26.5901C10.9681 26.5901 11.4768 26.0499 11.4768 25.3834C11.4768 24.717 10.9681 24.1768 10.3405 24.1768C9.71287 24.1768 9.2041 24.717 9.2041 25.3834C9.2041 26.0499 9.71287 26.5901 10.3405 26.5901Z" stroke="#0A625E" stroke-width="2.5" stroke-linecap="round" stroke-linejoin="round"/>
<path d="M22.8405 26.5901C23.4681 26.5901 23.9768 26.0499 23.9768 25.3834C23.9768 24.717 23.4681 24.1768 22.8405 24.1768C22.2129 24.1768 21.7041 24.717 21.7041 25.3834C21.7041 26.0499 22.2129 26.5901 22.8405 26.5901Z" stroke="#0A625E" stroke-width="2.5" stroke-linecap="round" stroke-linejoin="round"/>
<path d="M1.25 1.25H5.79545L8.84091 17.4074C8.94482 17.9629 9.22944 18.462 9.64494 18.8172C10.0604 19.1723 10.5803 19.361 11.1136 19.3501H22.1591C22.6924 19.361 23.2123 19.1723 23.6278 18.8172C24.0433 18.462 24.3279 17.9629 24.4318 17.4074L26.25 7.28338H6.93182" stroke="#0A625E" stroke-width="2.5" stroke-linecap="round" stroke-linejoin="round"/>
</svg>
