<svg width="165" height="81" viewBox="0 0 165 81" fill="none" xmlns="http://www.w3.org/2000/svg">
<g filter="url(#filter0_d_4230_1426)">
<path d="M18.9728 70.0221C19.2145 71.3191 20.167 71.6899 20.9576 70.9641C30.9985 60.1143 60.1153 56.5934 77.2292 58.2692C80.7547 58.1922 84.4546 59.4066 87.8687 58.6859C91.7394 54.3118 91.6993 47.2625 93.9192 41.8499C94.3671 38.3885 95.754 34.6996 95.0723 31.2439C85.1488 27.9425 74.9028 25.551 64.5328 24.1744C44.2628 20.691 13.9339 23.9751 4.65892 43.705C4.46083 44.3638 4.44803 45.0526 5.01762 45.4111C5.01762 45.4111 12.613 49.9653 15.4409 53.018C15.7941 53.3993 16.0238 53.8809 16.0941 54.3965C17.6517 65.8288 18.9728 70.0221 18.9728 70.0221Z" fill="#00615C"/>
</g>
<path d="M7.89342 43.5139C7.92566 43.4622 8.14996 43.5242 8.55362 43.6867C8.95616 43.849 9.53312 44.1166 10.2308 44.4682C10.914 44.8099 11.7781 45.2569 12.7354 45.8216C13.6897 46.3911 14.7564 47.0624 15.8431 47.9181C16.1123 48.1307 16.3838 48.3533 16.6497 48.5942C16.9077 48.8218 17.1716 49.065 17.4308 49.3313C17.947 49.8667 18.4868 50.4638 18.8663 51.2693C19.0646 51.6683 19.1807 52.101 19.2334 52.5282L19.2605 52.8485L19.2688 53.1496C19.2759 53.3497 19.283 53.5479 19.29 53.7443C19.3218 54.5107 19.412 55.326 19.5151 56.1897C19.5661 56.6217 19.6184 57.0659 19.6722 57.5225C19.7206 57.9631 19.7693 58.4073 19.8183 58.8548C19.9231 59.7437 20.031 60.6456 20.1721 61.5521C20.3129 62.4585 20.4682 63.3724 20.6491 64.286C20.7383 64.743 20.8334 65.2004 20.942 65.6538C21.0536 66.1025 21.1673 66.5672 21.339 66.9709C21.3649 67.0269 21.3954 67.0919 21.4217 67.1252L21.4407 67.1537C21.4423 67.1545 21.4414 67.1514 21.4414 67.1514C21.4414 67.1514 21.4434 67.1432 21.4212 67.1784C21.4136 67.1912 21.4068 67.2046 21.4009 67.2186L21.3966 67.2293L21.3946 67.2347L21.3941 67.236C21.3568 67.3108 21.4445 67.1349 21.4356 67.1531L21.4372 67.154L21.4472 67.1595L21.4866 67.1827C21.5189 67.2051 21.5129 67.2019 21.5218 67.2092C21.5474 67.2296 21.5623 67.2633 21.594 67.2746C21.6287 67.2776 21.6499 67.2427 21.6761 67.2256L21.9556 66.9956L22.2871 66.7276L22.9587 66.2012L23.9912 65.4396C24.3295 65.2027 24.6711 64.9634 25.0166 64.7214C25.3619 64.4687 25.7278 64.25 26.0824 64.0159C26.445 63.783 26.8162 63.5442 27.1784 63.3453C27.5427 63.1369 27.9053 62.9294 28.266 62.7229C28.6255 62.514 29.0002 62.3385 29.3633 62.1463C29.7289 61.9588 30.0923 61.7725 30.4531 61.5875C30.8215 61.4186 31.1874 61.2508 31.5504 61.0845C31.9141 60.9198 32.272 60.7493 32.632 60.5932C33.0259 60.4349 33.4355 60.2856 33.8082 60.1535C34.1846 60.0214 34.5425 59.896 34.8807 59.7774C35.2213 59.6649 35.5472 59.5713 35.8488 59.4656C36.5052 59.2466 37.1579 58.989 37.8285 58.7719C38.4952 58.5679 39.2011 58.3613 39.8571 58.188C40.5058 58.0006 41.1179 57.8972 41.673 57.7731C42.754 57.5397 43.7788 57.2515 44.7616 57.0885C45.715 56.9186 46.5374 56.754 47.2137 56.6503C47.8922 56.5617 48.4187 56.4929 48.7707 56.4469C49.4558 56.3675 50.1365 56.2593 50.8275 56.1828C51.5155 56.1242 52.2325 56.0819 52.8231 56.051C53.4331 56.0209 54.0065 55.9926 54.5389 55.9663C54.8049 55.962 55.0609 55.969 55.306 55.9696C55.436 55.9716 55.563 55.9735 55.6872 55.9754C55.8153 55.9797 55.9396 55.9839 56.0582 55.9878C57.0021 56.0323 57.6386 56.1042 58.0933 56.1511C58.5414 56.2015 58.7963 56.2398 58.7975 56.2878C58.7997 56.3336 58.5257 56.3857 58.0147 56.4164C57.5077 56.4503 56.7682 56.4507 55.9581 56.47C55.8589 56.4732 55.7573 56.4765 55.653 56.48C55.5451 56.4848 55.4348 56.4898 55.3218 56.4948C55.0788 56.5067 54.8248 56.5125 54.5611 56.5307C54.034 56.5762 53.4661 56.6252 52.8617 56.6774C52.2371 56.7282 51.6651 56.7733 51.0047 56.838C50.3498 56.9069 49.6302 57.035 48.8497 57.1235C48.5068 57.1663 47.997 57.2299 47.3414 57.3118C46.6876 57.4045 45.895 57.5617 44.9755 57.7194C44.5319 57.8051 44.0394 57.8813 43.5109 58.0065C42.9827 58.1331 42.4099 58.2663 41.7899 58.3957C41.1847 58.5222 40.5762 58.6278 39.9866 58.7924C39.3942 58.9426 38.8215 59.103 38.1734 59.2939C37.5308 59.4748 36.8678 59.7442 36.1416 59.9766C35.7549 60.0997 35.3751 60.2206 35.0043 60.3386C34.6378 60.463 34.2812 60.5839 33.9416 60.6991C33.5997 60.8154 33.2692 60.9311 32.9555 61.0508C32.5976 61.1886 32.2498 61.3594 31.8917 61.5141C31.5331 61.674 31.1714 61.8352 30.8071 61.9977C30.4426 62.1596 30.0896 62.3526 29.7266 62.5304C29.3655 62.7126 29.0022 62.896 28.6369 63.0804C28.2795 63.2798 27.9203 63.4804 27.5593 63.6819L27.0253 63.9805L26.5023 64.3026C26.1546 64.5242 25.8003 64.7389 25.4545 64.9683C25.1064 65.206 24.752 65.4479 24.392 65.6937C24.0469 65.9402 23.7011 66.1872 23.3547 66.4346C23.1041 66.618 22.8603 66.8106 22.6127 66.9982C22.4886 67.0916 22.3663 67.1875 22.2456 67.2858L21.8326 67.6177C21.7625 67.6731 21.6951 67.7092 21.6218 67.7262C21.5372 67.7398 21.4705 67.6974 21.4104 67.6515C21.3791 67.6265 21.3478 67.5961 21.317 67.5636C21.3043 67.5505 21.2812 67.5249 21.2722 67.5177C21.2677 67.5137 21.2636 67.512 21.2601 67.5096C21.2319 67.4916 21.164 67.441 21.1381 67.4078L21.0714 67.3127C20.9353 67.0678 20.869 66.8422 20.7963 66.6096C20.7283 66.3785 20.6675 66.1477 20.6126 65.9166C20.5019 65.4545 20.4071 64.992 20.3186 64.5301C20.1381 63.6072 19.9802 62.6871 19.8366 61.7739C19.6895 60.8613 19.5774 59.9527 19.4655 59.057C19.4132 58.609 19.3613 58.1641 19.3098 57.7227C19.2576 57.3068 19.2047 56.8854 19.1509 56.4571C19.041 55.6014 18.9272 54.7268 18.8725 53.8063C18.8401 53.3683 18.8455 52.9153 18.7991 52.5559C18.7425 52.1834 18.6429 51.8285 18.4867 51.5151C18.1919 50.8858 17.7202 50.2963 17.2054 49.7776C16.9461 49.5164 16.6757 49.2621 16.3958 49.0177C16.1288 48.7799 15.8566 48.5571 15.5852 48.3449C14.5114 47.5062 13.4451 46.8444 12.4984 46.2691C11.5465 45.6992 10.7041 45.2437 9.97542 44.8394C9.26733 44.4438 8.7392 44.1456 8.38697 43.9265C8.03578 43.7089 7.86126 43.5658 7.89342 43.5139Z" fill="white"/>
<path d="M53.789 25.4304C53.7798 25.4904 53.6065 25.5238 53.2866 25.5276C52.9678 25.5292 52.5027 25.5121 51.9327 25.4853C51.3748 25.4642 50.6651 25.448 49.855 25.4345C49.0447 25.4246 48.1284 25.4218 47.1264 25.4542C46.8776 25.4615 46.6236 25.4689 46.3645 25.4764C46.1162 25.4914 45.8581 25.5069 45.5913 25.523C45.0552 25.5538 44.4943 25.6206 43.876 25.651C43.2544 25.6903 42.6584 25.6881 42.0813 25.7224C41.5199 25.762 40.9222 25.8348 40.293 25.9444C39.9781 25.9959 39.6541 26.0482 39.3197 26.094C38.9981 26.1418 38.6738 26.19 38.3471 26.2385C37.6967 26.3307 37.0405 26.4475 36.3791 26.574C35.7185 26.7041 35.0555 26.8583 34.3868 27.0058C33.7227 27.1736 33.0482 27.3189 32.3825 27.5075C31.7803 27.6766 31.1734 27.8315 30.5788 28.0241L29.6851 28.2999C29.3964 28.3861 29.1136 28.4996 28.8244 28.6029C28.5323 28.7103 28.2409 28.8174 27.9506 28.9242C27.6575 29.0372 27.3584 29.1525 27.0778 29.2607C26.7931 29.3711 26.5097 29.481 26.2277 29.5903C25.9495 29.7087 25.6728 29.8264 25.3978 29.9434C25.1233 30.0616 24.8505 30.179 24.5797 30.2956C24.3106 30.4158 24.0482 30.5461 23.7855 30.6693C23.5233 30.794 23.2633 30.9176 23.0056 31.0401C22.7263 31.171 22.4441 31.3145 22.1808 31.4307C21.6526 31.6727 21.1653 31.8671 20.7653 32.1074C20.3283 32.3603 19.889 32.6207 19.4551 32.895C19.0318 33.1765 18.5816 33.4651 18.1563 33.7164C17.7359 33.9706 17.3622 34.2233 17.0145 34.4494C16.3322 34.8812 15.7539 35.4023 15.181 35.8449C14.0898 36.737 13.3149 37.4133 12.949 37.7778C12.5844 38.1218 12.2146 38.4592 11.8661 38.8249C11.5231 39.1913 11.1535 39.5589 10.8457 39.8594C10.5227 40.1655 10.2557 40.4872 9.98488 40.7647C9.85151 40.9054 9.72324 41.0406 9.60041 41.1702C9.53454 41.2384 9.47015 41.3051 9.40722 41.3703C9.34205 41.4375 9.27446 41.4994 9.21611 41.5625C8.74348 42.0632 8.38934 42.3781 8.13868 42.6073C7.88827 42.8307 7.73709 42.9535 7.69802 42.9256C7.66008 42.8998 7.7479 42.7124 7.96598 42.4008C8.18034 42.0901 8.52885 41.6645 8.90079 41.1911C8.94842 41.1348 8.99726 41.077 9.0473 41.0178C9.09813 40.9557 9.15016 40.8921 9.20341 40.827C9.31846 40.6873 9.43861 40.5414 9.56368 40.3896C9.82014 40.0914 10.076 39.7503 10.3918 39.4272C10.7126 39.0882 11.0074 38.7787 11.34 38.4114C11.6661 38.0427 12.0683 37.6751 12.4942 37.2716C12.8625 36.9093 13.6371 36.2474 14.7197 35.3692C15.2608 34.9669 15.8679 34.4183 16.6727 33.9168C17.0626 33.6687 17.4463 33.4144 17.8421 33.1858C18.238 32.9586 18.6146 32.7255 19.0385 32.4526C19.457 32.1824 19.922 31.9229 20.4165 31.641C20.9404 31.3335 21.4919 31.1258 21.9798 30.9084C22.2269 30.8026 22.4619 30.6918 22.6884 30.5873C22.9473 30.4687 23.2087 30.349 23.4722 30.2283C23.7374 30.1069 24.0048 29.9844 24.2741 29.8609C24.5477 29.7475 24.8234 29.6333 25.1008 29.5182C25.3785 29.4039 25.6579 29.2888 25.9389 29.1731C26.2237 29.067 26.5099 28.9603 26.7975 28.8531C27.0806 28.7476 27.365 28.6417 27.6505 28.5353C27.9394 28.4341 28.2295 28.3325 28.5205 28.2307C28.8161 28.1278 29.116 28.0191 29.4246 27.9209L30.3335 27.655C30.9351 27.4716 31.5464 27.3172 32.1564 27.16C32.8273 26.9741 33.5079 26.8347 34.1789 26.6737C34.852 26.5222 35.5224 26.3761 36.1878 26.2378C36.855 26.1097 37.5165 25.9832 38.1731 25.8856C38.5008 25.8338 38.8262 25.7824 39.149 25.7314C39.4542 25.6855 39.7627 25.6355 40.075 25.5802C40.6998 25.4653 41.3409 25.3646 42.0165 25.305C42.6722 25.2537 43.2666 25.2481 43.8009 25.2059C44.3319 25.1755 44.8919 25.1008 45.4429 25.0574L46.2773 24.9943C46.5457 24.9773 46.8094 24.9717 47.0673 24.9602C48.0867 24.9163 49.0206 24.9105 49.8463 24.9284C50.6722 24.9482 51.3838 24.9819 52.0002 25.0409C52.5997 25.1055 53.0441 25.173 53.3439 25.2425C53.6427 25.3096 53.7983 25.3698 53.789 25.4304Z" fill="white"/>
<g filter="url(#filter1_d_4230_1426)">
<path d="M85.8871 47.1153C86.1645 48.0121 87.3754 48.1357 88.1682 48.2176C95.2172 48.8357 102.239 49.7337 109.243 50.7337C123.165 52.7284 139.795 49.2381 148.727 42.8379C157.578 36.4958 160.861 27.0562 159.078 27.3812C156.111 27.9219 150.74 27.6244 148.556 26.0939C146.372 24.5634 145.967 14.5819 145.967 14.5819C145.878 13.8363 145.004 13.5238 144.464 14.0394C143.005 15.4318 140.081 17.784 134.659 20.7224C129.374 23.5054 123.549 25.1245 117.727 26.3407C91.1122 32.2381 86.7317 19.4329 87.2443 37.6359C86.9287 39.3891 86.9957 41.1597 86.8181 42.9222C86.6172 44.3313 85.7878 45.673 85.8871 47.1153Z" fill="#00615C"/>
</g>
<path d="M119.961 49.4755C119.964 49.4146 120.265 49.3472 120.835 49.2796C121.404 49.2046 122.24 49.1622 123.262 49.0613C124.261 48.9513 125.534 48.8416 126.975 48.6292C127.336 48.581 127.709 48.5313 128.093 48.4801C128.475 48.4147 128.867 48.3473 129.271 48.2782C129.674 48.2088 130.088 48.1376 130.512 48.0647C130.933 47.9755 131.364 47.8841 131.805 47.7908C132.241 47.6926 132.692 47.617 133.141 47.4947C133.573 47.3813 134.022 47.2634 134.486 47.1417C134.954 47.0261 135.422 46.8673 135.912 46.7169C136.4 46.5599 136.913 46.4233 137.436 46.2348C137.967 46.0627 138.486 45.8944 138.996 45.7289C139.5 45.5463 139.995 45.3672 140.481 45.1909C141.418 44.8153 142.398 44.3578 143.402 43.8079C143.914 43.552 144.411 43.2341 144.939 42.94C145.452 42.6607 145.937 42.3274 146.443 42.0201C146.933 41.695 147.42 41.356 147.906 41.0093C148.376 40.6417 148.867 40.2947 149.317 39.8913C150.247 39.1216 151.114 38.2601 151.944 37.3574C152.775 36.4551 153.54 35.4806 154.233 34.454C154.858 33.5247 155.421 32.5525 155.914 31.5482C156.156 31.0441 156.388 30.5362 156.599 30.0187C156.677 29.826 156.755 29.6325 156.833 29.438C156.847 29.3923 156.878 29.3516 156.879 29.3062C156.854 29.2563 156.788 29.2925 156.746 29.2882L156.666 29.296C156.115 29.342 155.544 29.3671 154.985 29.3923C154.414 29.4055 153.83 29.4086 153.281 29.3884C152.168 29.3492 151.057 29.2406 149.978 28.98C148.909 28.7045 147.847 28.2725 147.005 27.533C146.587 27.1672 146.215 26.7482 145.928 26.2847C145.612 25.7859 145.381 25.2288 145.215 24.7173C144.9 23.6766 144.773 22.7253 144.65 21.884C144.52 20.9716 144.417 20.0491 144.325 19.1217C144.283 18.6629 144.241 18.1921 144.198 17.7246C144.187 17.581 144.175 17.438 144.164 17.2966L144.157 17.1891C144.163 17.1464 144.137 17.1279 144.121 17.1477C144.105 17.1661 144.089 17.1842 144.077 17.1984C144.065 17.2118 144.049 17.2313 144.038 17.2407C143.978 17.3054 143.918 17.3693 143.859 17.4325C143.733 17.5741 143.602 17.703 143.469 17.8229C143.212 18.0742 142.949 18.2886 142.7 18.5006C141.547 19.4328 140.376 20.2257 139.242 20.9075C137.021 22.2055 135.316 22.9819 134.466 23.3826C133.635 23.7596 132.805 24.1341 131.956 24.4885C131.115 24.8461 130.225 25.1799 129.487 25.4407C128.725 25.7141 128.002 25.9494 127.33 26.1611C126.992 26.2619 126.667 26.3588 126.356 26.4516C126.19 26.4978 126.028 26.5429 125.87 26.5871C125.706 26.6324 125.545 26.6704 125.393 26.7071C124.174 26.9943 123.329 27.1005 122.725 27.1516C122.128 27.1981 121.789 27.167 121.785 27.1231C121.781 27.073 122.128 27.0166 122.781 26.8725C123.429 26.7289 124.378 26.5097 125.403 26.2042C125.529 26.1655 125.657 26.1257 125.788 26.0851C125.924 26.0406 126.063 25.9951 126.205 25.9486C126.509 25.8447 126.827 25.7363 127.157 25.6235C127.816 25.3905 128.526 25.1372 129.275 24.85C130.05 24.5564 130.757 24.278 131.563 23.9296C132.365 23.5886 133.243 23.1879 134.19 22.76C135.017 22.3737 136.668 21.6316 138.801 20.4018C139.828 19.7997 141.036 19.0195 142.323 17.9905C142.583 17.7759 142.841 17.5591 143.081 17.3279C143.207 17.2174 143.319 17.0965 143.432 16.9764L143.642 16.7526L143.944 16.3694C144.072 16.3025 144.207 16.214 144.323 16.1647C144.368 16.1602 144.453 16.1798 144.504 16.2125C144.562 16.2274 144.558 16.3054 144.576 16.3765L144.661 16.7923C144.71 17.0549 144.797 17.3836 144.793 17.5556C144.827 17.9663 144.861 18.3875 144.898 18.836C144.978 19.72 145.072 20.6629 145.201 21.6599C145.344 22.7203 145.494 23.7382 145.773 24.6258C145.916 25.0698 146.09 25.488 146.306 25.8604C146.559 26.2809 146.861 26.6748 147.221 27.018C147.589 27.3566 148.009 27.6426 148.46 27.8837C148.923 28.1047 149.404 28.3025 149.914 28.4341C150.926 28.7197 152.001 28.8453 153.086 28.9019C153.622 28.9226 154.16 28.9366 154.702 28.9291C155.246 28.918 155.793 28.9007 156.341 28.8641C156.552 28.8507 156.765 28.8373 156.986 28.8233C157.064 28.8186 157.131 28.8305 157.187 28.8458C157.242 28.8649 157.285 28.8708 157.335 28.9177C157.451 29.0199 157.382 29.1424 157.367 29.2688L157.348 29.3628L157.299 29.4738L157.211 29.6843L157.096 29.9636C156.876 30.4858 156.649 31.0109 156.396 31.5233C155.899 32.5463 155.329 33.5366 154.692 34.4804C153.992 35.5257 153.211 36.5114 152.374 37.4338C151.966 37.9052 151.52 38.3389 151.089 38.7818C150.635 39.2024 150.197 39.6363 149.723 40.0255C148.804 40.84 147.808 41.5396 146.825 42.2208C146.32 42.5404 145.821 42.8647 145.316 43.1667C144.831 43.4398 144.353 43.7387 143.854 44.0156C143.348 44.2817 142.845 44.5686 142.317 44.8274C141.785 45.0752 141.246 45.3355 140.68 45.5657C140.126 45.7726 139.599 45.9698 139.097 46.1574C138.588 46.3256 138.106 46.485 137.648 46.6364C137.198 46.8005 136.727 46.9438 136.253 47.0944C135.778 47.2407 135.304 47.4124 134.825 47.5423C134.343 47.6733 133.857 47.8051 133.373 47.9367C132.907 48.0676 132.441 48.1561 131.988 48.2583C131.54 48.356 131.102 48.4516 130.674 48.5449C130.242 48.6215 129.821 48.6962 129.41 48.769C129 48.8403 128.6 48.9096 128.211 48.977C127.82 49.0283 127.441 49.0782 127.073 49.1265C125.604 49.3361 124.33 49.4297 123.224 49.5142C122.146 49.5783 121.341 49.5719 120.794 49.5717C120.249 49.5651 119.958 49.5369 119.961 49.4755Z" fill="white"/>
<path d="M40.3039 38.2797C40.914 38.0383 41.5762 37.7866 42.2307 37.6768C45.4008 37.1444 48.0079 39.3884 48.4406 42.5846C49.0579 47.1464 47.0545 50.5555 42.5227 51.3163C40.6631 51.6291 36.5906 51.028 36.2651 48.6238C36.1287 47.6136 36.8259 46.6306 37.7946 46.4678C38.8429 46.2917 40.3366 47.8285 42.0914 47.5338C43.9249 47.2257 44.6172 45.2105 44.3844 43.4895C44.1622 41.8512 43.1198 40.8807 41.4958 41.1532C39.9765 41.4084 39.8629 42.3486 38.5271 42.5729C37.5056 42.7444 36.8708 42.0125 36.808 41.5484C36.7598 41.193 36.7757 40.9117 36.7611 40.6075L36.6359 34.7334C36.5835 32.5632 37.0712 32.0066 38.3283 31.7949L44.6408 30.7355C45.8458 30.5333 46.6526 31.1523 46.7851 32.1357C47.0402 34.0198 45.7006 34.4129 45.2288 34.4919L40.3048 35.3182L40.3039 38.2797Z" fill="white"/>
<path d="M35.2956 50.7079C36.4423 50.3539 37.4774 50.6084 37.8206 51.8256C38.1638 53.0427 37.4268 53.8462 36.4376 54.1524L27.735 56.8443C26.5884 57.1984 25.554 56.9439 25.2108 55.7267C25.0533 55.1708 25.2582 54.5902 25.4287 54.1917C26.8528 50.9045 28.5262 47.7987 29.6853 44.275C29.9596 43.443 30.1715 42.4851 29.9024 41.5324C29.5967 40.4476 28.5211 39.7448 27.4523 40.0756C24.4564 41.0026 27.0984 44.8448 24.5971 45.6187C23.3463 46.006 22.4412 45.3079 22.15 44.2758C21.2098 40.9424 23.3747 37.3683 26.5785 36.377C29.7839 35.386 32.9678 36.7312 33.915 40.0904C34.9525 43.767 31.9442 48.6678 30.5277 52.183L35.2956 50.7079Z" fill="white"/>
<path d="M132.69 32.3603C132.569 31.8121 132.161 31.5786 131.727 31.6711L128.132 32.4409C127.699 32.5334 127.426 32.9137 127.546 33.4625L128.292 36.8402C128.563 38.0686 128.215 38.8435 127.798 39.1627C127.439 39.4465 127.304 39.6698 127.389 40.0541C127.471 40.427 127.762 40.7662 128.259 40.6606C128.754 40.5544 129.082 40.2311 129.364 39.8377C130.031 38.8909 130.041 37.4187 129.768 36.179L129.227 33.7229L131.271 33.2849L132.5 38.8561C132.621 39.4043 133.02 39.6407 133.464 39.5453C133.908 39.45 134.17 39.0725 134.049 38.5237L132.69 32.3603Z" fill="white"/>
<path d="M138.63 35.9961L136.802 36.6814L136.2 35.0818L137.821 34.4742C138.296 34.2966 138.405 33.8352 138.27 33.4778C138.131 33.1094 137.76 32.8405 137.275 33.0221L135.655 33.6297L135.079 32.0935L136.817 31.4414C137.282 31.2672 137.381 30.8098 137.246 30.4523C137.107 30.0846 136.746 29.8116 136.272 29.9892L133.822 30.908C133.298 31.1039 133.197 31.5859 133.395 32.1118L135.569 37.9C135.747 38.3728 136.192 38.5664 136.626 38.4037L139.176 37.4477C139.64 37.2741 139.738 36.8167 139.604 36.4586C139.466 36.0909 139.104 35.8179 138.63 35.9961Z" fill="white"/>
<path d="M143.497 34.6221L141.105 29.5174L142.144 29.0263C142.602 28.8099 142.626 28.3639 142.464 28.0179C142.298 27.6621 141.898 27.4291 141.487 27.6227L137.977 29.2816C137.566 29.4746 137.49 29.9337 137.657 30.2889C137.819 30.635 138.176 30.9011 138.634 30.6841L139.674 30.193L142.066 35.2982C142.304 35.807 142.743 35.9475 143.153 35.7539C143.564 35.5597 143.736 35.1314 143.497 34.6221Z" fill="white"/>
<g filter="url(#filter2_d_4230_1426)">
<path d="M85.8805 17.5071C81.7975 17.4048 65.8991 14.7769 57.2371 25.1019C46.0849 38.3941 53.0106 52.0941 61.7518 59.0424C67.9501 63.9696 82.267 70.7784 90.8582 70.2723C99.1406 69.7835 113.256 61.0808 118.991 52.0842C125.923 41.2094 128.066 26.6119 113.598 18.4558C99.8127 10.6835 90.4118 17.6211 85.8805 17.5071Z" fill="white"/>
</g>
<path d="M79.268 40.6651C78.0616 40.7051 78.1028 39.1738 77.7161 35.7272C77.0611 29.8818 77.4747 30.5753 79.0975 30.5102C79.7657 30.4883 80.8871 29.0953 82.4821 29.8762C85.3176 31.2347 85.2971 38.6312 80.4549 37.4602C79.1838 37.1527 80.9474 40.6008 79.268 40.6651ZM80.7786 31.7131C78.1444 31.802 80.3856 37.7236 81.8437 35.1361C82.4856 34.0225 82.0334 31.6674 80.7786 31.7131Z" fill="#014E72"/>
<path d="M88.4925 39.7551C86.9302 39.8102 88.4595 37.9521 88.7338 36.9861C88.8827 36.4513 87.9196 36.7893 87.0757 36.2282C85.8048 35.3905 84.6056 30.5988 85.7108 29.862C87.3629 28.7603 87.2981 34.3532 88.5469 34.3095C90.0616 34.2562 89.0665 30.349 90.0353 29.5655C92.5414 27.5589 91.7601 39.648 88.4925 39.7551Z" fill="#EE765E"/>
<path d="M98.1378 36.8314C97.7317 36.8454 97.2787 36.5367 97.1815 35.8167C97.1395 35.5014 97.0497 33.046 96.9484 32.5052C96.8174 31.8175 96.4863 31.4534 96.1082 31.583C95.9394 31.6392 95.6049 31.8893 95.2524 32.9271C95.1667 33.1789 94.8257 35.2768 94.7582 35.536C94.5588 36.2906 94.3241 36.6943 93.9962 36.8454C93.8982 36.8908 93.7953 36.9164 93.6906 36.9189C93.3422 36.9313 93.0473 36.6968 92.9106 36.4599C92.6931 36.0867 92.6997 35.4832 92.7459 35.0423C92.7516 34.9895 92.9081 32.4441 92.9394 32.2113C93.0902 31.1025 93.3088 30.5944 93.6734 30.5444C94.1667 30.4767 94.3175 30.2786 94.5465 30.1234C94.619 30.0747 95.6461 29.4068 96.1823 29.3259C96.9896 29.2053 97.656 29.5974 98.0604 29.9236C98.3611 30.1704 98.4994 30.2769 98.7004 30.2869C98.8503 30.2819 99.5867 29.7337 99.6946 29.6618C100.077 29.4051 100.529 29.2615 101.003 29.2457C101.501 29.2284 101.91 29.3548 102.128 29.4794C102.595 29.7444 103.107 30.5304 103.224 31.1612C103.316 31.6639 103.654 34.6633 103.66 35.2768C103.667 35.8448 103.592 36.5135 102.947 36.6465C102.53 36.7365 101.933 36.4029 101.762 35.6508C101.688 35.3189 101.396 32.9833 101.396 32.9833C101.356 32.6803 101.116 31.8381 100.697 31.8101H100.695C100.403 31.8208 100.069 32.2311 99.8899 32.6126C99.7589 32.8908 99.3232 35.4576 99.2276 35.7102C98.9862 36.3344 98.8413 36.7109 98.2556 36.8182C98.2161 36.8264 98.1765 36.8306 98.1378 36.8314Z" fill="#014E72"/>
<path d="M69.0715 40.311H69.0707C68.2248 40.3399 67.8533 39.5895 67.7808 39.2972L67.7932 39.2939C67.7404 39.1569 67.6745 38.9298 67.5666 38.5566C67.4702 38.4782 67.3179 38.3824 67.1482 38.3791C66.5963 38.3701 65.3468 38.1133 64.5618 37.7979C62.6425 37.0227 62.1739 36.453 61.7595 35.9494C61.6903 35.866 61.6228 35.7834 61.5487 35.7026C60.7217 34.796 60.3427 33.5527 60.5091 32.2903C60.6722 31.0445 61.3732 30.0141 62.0182 29.5741C61.9407 29.5212 61.8691 29.4544 61.8073 29.3726C61.5206 29.0036 61.4506 27.9997 62.4877 26.8884C63.3731 25.9356 64.1853 25.5559 64.7776 25.2776C65.0757 25.1389 65.3912 25.0539 65.696 24.9722C65.9135 24.9127 66.1334 24.8541 66.3517 24.7732C66.7536 24.6271 66.8294 24.2052 66.8434 24.031L66.8698 23.9344C67.1276 23.4085 67.4941 23.0997 67.9019 23.0634L67.9777 23.0584C68.6259 23.037 68.9628 23.4522 69.0551 23.813C69.144 24.1589 69.462 24.3711 70.088 24.5024L70.4916 24.5883C72.4084 24.9912 72.7444 25.2058 73.8565 25.9183L74.2246 26.1536C75.4198 26.9098 76.143 28.8434 76.3062 29.6608C76.4561 30.4253 76.5862 31.6372 76.0014 33.3372C75.4915 34.82 74.6802 35.6026 74.1431 36.1211C72.9553 37.2662 71.1917 37.8565 70.6111 37.9895C70.4109 38.034 70.3433 38.2495 70.247 39.1395C70.2066 39.5176 70.1317 40.2219 69.1827 40.3028C69.1498 40.3069 69.1103 40.3102 69.0715 40.311ZM63.2546 29.1695C63.6301 29.1695 63.8526 29.314 63.9547 29.4032C64.1598 29.5848 64.2117 29.8655 64.098 30.1751C64.0642 30.2717 63.9728 30.3741 63.8279 30.5326C63.5601 30.8257 63.3929 31.4358 63.2513 32.0509C63.1063 32.6751 63.3279 33.7368 63.7249 34.3254C64.1038 34.886 64.2949 35.0685 65.0165 35.3756C65.6902 35.6612 66.5436 35.7471 66.9241 35.7347L66.9991 35.7298C67.1778 35.7141 67.3105 35.6588 67.392 35.5639C67.4876 35.4532 67.5238 35.2806 67.4983 35.0528C67.4488 34.5946 67.4307 33.9564 67.411 33.2819C67.3961 32.7584 67.3805 32.2135 67.3483 31.7207C67.2792 30.597 67.0543 28.3018 66.9802 27.8717C66.9151 27.4936 66.8228 27.4424 66.7339 27.3928C66.6375 27.3384 66.4892 27.3119 66.3047 27.3185C66.0074 27.3293 65.7199 27.4151 65.5972 27.4655C64.7644 27.7957 64.4316 28.0236 64.2537 28.1664C63.799 28.533 63.57 28.779 63.2546 29.1695ZM70.3508 27.1567C70.102 27.1658 70.032 27.2756 69.8796 27.6133C69.7165 27.9666 69.6753 29.1051 69.7536 30.9958L69.7569 31.0758C69.7882 31.8453 69.999 34.1553 70.1152 34.5293C70.2437 34.9364 70.3022 35.123 70.6926 35.222C70.9776 35.2938 71.3557 35.1452 71.8804 34.758C73.0311 33.9126 73.5904 32.8129 73.7518 31.0808C73.8598 29.9051 73.1752 28.6189 72.4512 28.055C71.569 27.3672 71.0188 27.2004 70.4628 27.16C70.4208 27.1567 70.3845 27.1559 70.3508 27.1567Z" fill="#FCBD14"/>
<path d="M104.134 55.508C102.141 54.698 104.729 53.0836 105.595 51.0938C106.048 50.0506 105.807 49.9132 105.065 49.6573C102.736 48.8524 102.198 47.0248 103.033 44.6492C104.56 40.2522 111.427 39.9995 111.971 43.8781C111.978 43.9295 113.198 51.6294 113.234 52.0516C113.397 53.9505 111.567 53.8433 111.908 53.8291C109.769 53.9183 110.827 49.816 109.623 49.8643C107.44 49.9589 107.063 56.6994 104.134 55.508ZM107.079 43.5314C104.974 44.2009 104.793 49.0059 108.294 47.6899C111.344 46.5432 109.899 42.6309 107.079 43.5314Z" fill="#014E72"/>
<path d="M99.4947 55.9418C97.0857 56.033 99.1125 50.5903 98.0249 49.6802C97.2594 49.0292 93.5017 49.3365 93.1702 49.4855C91.1973 50.3718 92.7841 55.7792 90.6128 55.8653C88.7537 55.9274 89.2855 53.1531 89.6894 48.2618C90.0097 44.3824 89.6013 41.5216 91.5406 41.3518C93.5419 41.2275 91.6464 46.2209 92.8267 46.8094C93.7983 47.2982 95.9056 47.2046 97.1016 46.8971C98.397 46.5618 98.6862 45.1761 98.6862 43.8677C98.6862 40.9777 99.3715 40.6546 99.6858 40.5747C101.058 40.226 101.18 43.1134 101.054 45.3615C100.497 55.296 101.125 55.8772 99.4947 55.9418Z" fill="#014E72"/>
<path d="M78.453 55.8366C75.7315 55.9435 79.5614 51.9622 79.8475 51.5608C80.6576 50.4247 80.356 50.3809 79.6729 49.9566C77.5568 48.6444 77.5546 46.7216 78.906 44.6389C81.4702 40.648 88.1944 41.8427 87.7839 45.7931C87.7786 45.8446 87.1126 53.586 87.0409 54.0334C86.6844 56.2972 84.2251 55.782 84.4372 53.7354C84.8736 49.5819 82.8098 51.5186 80.3376 54.84C80.0134 55.2726 79.4791 55.7946 78.453 55.8366ZM82.4397 44.7602C79.9151 45.3933 80.5657 49.2332 83.2445 48.7801C86.1837 48.284 85.0979 44.0955 82.4397 44.7602Z" fill="#014E72"/>
<path d="M66.2455 58.1739C64.401 58.248 65.6272 55.6681 63.1393 44.1642C62.5596 41.5006 64.9031 40.9693 65.4531 43.1306C66.2096 46.0987 66.6118 48.0649 67.1706 48.2493C68.2375 48.6005 70.4563 48.1094 71.635 47.588C73.9234 46.578 71.7037 40.5426 73.5608 40.1526C75.1313 39.8111 75.1569 42.2101 75.8944 49.0724C76.3899 53.7428 77.8283 56.7062 75.6217 56.7893C73.0929 56.8577 74.9928 50.026 72.0049 50.1465C71.4864 50.1688 71.1265 50.268 70.3451 50.4165C68.8571 50.7051 67.4155 50.8419 67.3583 52.4376C67.3035 54.2513 68.1548 58.103 66.2455 58.1739Z" fill="#014E72"/>
<path d="M109.187 29.2223C107.17 28.7006 105.39 29.9291 104.75 32.5545C104.112 35.1791 104.994 36.8567 107.035 37.3454C109.074 37.8342 111.235 36.3382 111.693 33.622C112.15 30.9066 110.699 29.6137 109.187 29.2223ZM109.63 33.6212C109.357 34.9033 108.382 35.6967 107.51 35.3871C106.637 35.0767 106.372 34.2924 106.738 32.9508C107.104 31.6075 107.719 30.966 108.745 31.1064C109.721 31.2409 109.904 32.3398 109.63 33.6212Z" fill="#4AAE42"/>
<path d="M114.747 0.994633C114.747 0.994633 102.9 -2.01346 95.1364 2.43286C86.2079 7.5466 86.8357 17.4439 86.8357 17.4439C93.0866 16.436 95.402 21.5952 105.021 18.5731C116.04 15.1115 114.747 0.994633 114.747 0.994633Z" fill="#00615C"/>
<path d="M76.7374 3.63672C76.7374 3.63672 76.1459 6.95701 77.5656 10.1588C78.9853 13.3604 81.4698 14.1905 82.8895 14.5463C84.3092 14.902 85.729 14.7835 85.729 14.7835C85.729 14.7835 85.374 13.5976 85.6107 10.8702C85.8473 8.14284 85.6107 6.00839 82.7712 4.58538C79.9318 3.16241 77.0924 4.4668 76.7374 3.63672Z" fill="#00615C"/>
<defs>
<filter id="filter0_d_4230_1426" x="-0.000283718" y="20.6932" width="99.7935" height="57.441" filterUnits="userSpaceOnUse" color-interpolation-filters="sRGB">
<feFlood flood-opacity="0" result="BackgroundImageFix"/>
<feColorMatrix in="SourceAlpha" type="matrix" values="0 0 0 0 0 0 0 0 0 0 0 0 0 0 0 0 0 0 127 0" result="hardAlpha"/>
<feOffset dy="2.26772"/>
<feGaussianBlur stdDeviation="2.26772"/>
<feColorMatrix type="matrix" values="0 0 0 0 0.317647 0 0 0 0 0.505882 0 0 0 0 0.588235 0 0 0 0.75 0"/>
<feBlend mode="normal" in2="BackgroundImageFix" result="effect1_dropShadow_4230_1426"/>
<feBlend mode="normal" in="SourceGraphic" in2="effect1_dropShadow_4230_1426" result="shape"/>
</filter>
<filter id="filter1_d_4230_1426" x="81.3435" y="11.5174" width="82.7379" height="46.5797" filterUnits="userSpaceOnUse" color-interpolation-filters="sRGB">
<feFlood flood-opacity="0" result="BackgroundImageFix"/>
<feColorMatrix in="SourceAlpha" type="matrix" values="0 0 0 0 0 0 0 0 0 0 0 0 0 0 0 0 0 0 127 0" result="hardAlpha"/>
<feOffset dy="2.26772"/>
<feGaussianBlur stdDeviation="2.26772"/>
<feColorMatrix type="matrix" values="0 0 0 0 0.317647 0 0 0 0 0.505882 0 0 0 0 0.588235 0 0 0 0.75 0"/>
<feBlend mode="normal" in2="BackgroundImageFix" result="effect1_dropShadow_4230_1426"/>
<feBlend mode="normal" in="SourceGraphic" in2="effect1_dropShadow_4230_1426" result="shape"/>
</filter>
<filter id="filter2_d_4230_1426" x="44.7153" y="11.3938" width="86.3946" height="69.0206" filterUnits="userSpaceOnUse" color-interpolation-filters="sRGB">
<feFlood flood-opacity="0" result="BackgroundImageFix"/>
<feColorMatrix in="SourceAlpha" type="matrix" values="0 0 0 0 0 0 0 0 0 0 0 0 0 0 0 0 0 0 127 0" result="hardAlpha"/>
<feOffset dy="3.37185"/>
<feGaussianBlur stdDeviation="3.37185"/>
<feColorMatrix type="matrix" values="0 0 0 0 0.317647 0 0 0 0 0.505882 0 0 0 0 0.588235 0 0 0 1 0"/>
<feBlend mode="normal" in2="BackgroundImageFix" result="effect1_dropShadow_4230_1426"/>
<feBlend mode="normal" in="SourceGraphic" in2="effect1_dropShadow_4230_1426" result="shape"/>
</filter>
</defs>
</svg>
