<svg width="28" height="28" viewBox="0 0 28 28" fill="none" xmlns="http://www.w3.org/2000/svg">
<g clip-path="url(#clip0_4246_510)">
<path d="M0 13.44C0 7.1043 0 3.93648 1.96824 1.96824C3.93648 0 7.1043 0 13.44 0H14.56C20.8957 0 24.0635 0 26.0318 1.96824C28 3.93648 28 7.1043 28 13.44V14.56C28 20.8957 28 24.0635 26.0318 26.0318C24.0635 28 20.8957 28 14.56 28H13.44C7.1043 28 3.93648 28 1.96824 26.0318C0 24.0635 0 20.8957 0 14.56V13.44Z" fill="#0077FF"/>
<path d="M14.8979 20.1716C8.51622 20.1716 4.87628 15.7966 4.72461 8.5166H7.92128C8.02628 13.8599 10.3829 16.1233 12.2496 16.5899V8.5166H15.2597V13.1249C17.103 12.9266 19.0394 10.8266 19.6928 8.5166H22.7028C22.2012 11.3633 20.1012 13.4633 18.6078 14.3266C20.1012 15.0266 22.4929 16.8583 23.4029 20.1716H20.0895C19.3778 17.9549 17.6047 16.2399 15.2597 16.0066V20.1716H14.8979Z" fill="white"/>
</g>
<defs>
<clipPath id="clip0_4246_510">
<rect width="28" height="28" fill="white"/>
</clipPath>
</defs>
</svg>
